<svg width="126" height="24" viewBox="0 0 126 24" fill="none" xmlns="http://www.w3.org/2000/svg">
<path d="M9.20996 15.3975H3.77539V11.9697H9.20996C10.0498 11.9697 10.7334 11.833 11.2607 11.5596C11.7881 11.2764 12.1738 10.8857 12.418 10.3877C12.6621 9.88965 12.7842 9.32812 12.7842 8.70312C12.7842 8.06836 12.6621 7.47754 12.418 6.93066C12.1738 6.38379 11.7881 5.94434 11.2607 5.6123C10.7334 5.28027 10.0498 5.11426 9.20996 5.11426H5.29883V23H0.904297V1.67188H9.20996C10.8799 1.67188 12.3105 1.97461 13.502 2.58008C14.7031 3.17578 15.6211 4.00098 16.2559 5.05566C16.8906 6.11035 17.208 7.31641 17.208 8.67383C17.208 10.0508 16.8906 11.2422 16.2559 12.248C15.6211 13.2539 14.7031 14.0303 13.502 14.5771C12.3105 15.124 10.8799 15.3975 9.20996 15.3975ZM20.8977 15.2363V14.9287C20.8977 13.7666 21.0637 12.6973 21.3957 11.7207C21.7277 10.7344 22.2111 9.87988 22.8459 9.15723C23.4807 8.43457 24.2619 7.87305 25.1896 7.47266C26.1174 7.0625 27.1818 6.85742 28.383 6.85742C29.5842 6.85742 30.6535 7.0625 31.591 7.47266C32.5285 7.87305 33.3146 8.43457 33.9494 9.15723C34.5939 9.87988 35.0822 10.7344 35.4143 11.7207C35.7463 12.6973 35.9123 13.7666 35.9123 14.9287V15.2363C35.9123 16.3887 35.7463 17.458 35.4143 18.4443C35.0822 19.4209 34.5939 20.2754 33.9494 21.0078C33.3146 21.7305 32.5334 22.292 31.6057 22.6924C30.6779 23.0928 29.6135 23.293 28.4123 23.293C27.2111 23.293 26.1418 23.0928 25.2043 22.6924C24.2766 22.292 23.4904 21.7305 22.8459 21.0078C22.2111 20.2754 21.7277 19.4209 21.3957 18.4443C21.0637 17.458 20.8977 16.3887 20.8977 15.2363ZM25.1164 14.9287V15.2363C25.1164 15.9004 25.175 16.5205 25.2922 17.0967C25.4094 17.6729 25.5949 18.1807 25.8488 18.6201C26.1125 19.0498 26.4543 19.3867 26.8742 19.6309C27.2941 19.875 27.8068 19.9971 28.4123 19.9971C28.9982 19.9971 29.5012 19.875 29.9211 19.6309C30.341 19.3867 30.6779 19.0498 30.9318 18.6201C31.1857 18.1807 31.3713 17.6729 31.4885 17.0967C31.6154 16.5205 31.6789 15.9004 31.6789 15.2363V14.9287C31.6789 14.2842 31.6154 13.6787 31.4885 13.1123C31.3713 12.5361 31.1809 12.0283 30.9172 11.5889C30.6633 11.1396 30.3264 10.7881 29.9064 10.5342C29.4865 10.2803 28.9787 10.1533 28.383 10.1533C27.7873 10.1533 27.2795 10.2803 26.8596 10.5342C26.4494 10.7881 26.1125 11.1396 25.8488 11.5889C25.5949 12.0283 25.4094 12.5361 25.2922 13.1123C25.175 13.6787 25.1164 14.2842 25.1164 14.9287ZM44.5238 0.485352V23H40.3051V0.485352H44.5238ZM54.5141 7.15039L47.6293 15.002L43.9379 18.7373L42.3998 15.6904L45.3295 11.9697L49.4457 7.15039H54.5141ZM50.1342 23L45.4467 15.6758L48.3617 13.127L54.9975 23H50.1342ZM65.1324 23.293C63.902 23.293 62.7984 23.0977 61.8219 22.707C60.8453 22.3066 60.0152 21.7549 59.3316 21.0518C58.6578 20.3486 58.1402 19.5332 57.7789 18.6055C57.4176 17.668 57.2369 16.6719 57.2369 15.6172V15.0312C57.2369 13.8301 57.4078 12.7314 57.7496 11.7354C58.0914 10.7393 58.5797 9.875 59.2145 9.14258C59.859 8.41016 60.6402 7.84863 61.5582 7.45801C62.4762 7.05762 63.5113 6.85742 64.6637 6.85742C65.7867 6.85742 66.7828 7.04297 67.652 7.41406C68.5211 7.78516 69.2486 8.3125 69.8346 8.99609C70.4303 9.67969 70.8795 10.5 71.1822 11.457C71.485 12.4043 71.6363 13.459 71.6363 14.6211V16.3789H59.0387V13.5664H67.4908V13.2441C67.4908 12.6582 67.3834 12.1357 67.1686 11.6768C66.9635 11.208 66.651 10.8369 66.2311 10.5635C65.8111 10.29 65.274 10.1533 64.6197 10.1533C64.0631 10.1533 63.5846 10.2754 63.1842 10.5195C62.7838 10.7637 62.4566 11.1055 62.2027 11.5449C61.9586 11.9844 61.773 12.502 61.6461 13.0977C61.5289 13.6836 61.4703 14.3281 61.4703 15.0312V15.6172C61.4703 16.252 61.5582 16.8379 61.734 17.375C61.9195 17.9121 62.1783 18.376 62.5104 18.7666C62.8521 19.1572 63.2623 19.46 63.7408 19.6748C64.2291 19.8896 64.7809 19.9971 65.3961 19.9971C66.1578 19.9971 66.8658 19.8506 67.5201 19.5576C68.1842 19.2549 68.7555 18.8008 69.234 18.1953L71.2848 20.4219C70.9527 20.9004 70.4986 21.3594 69.9225 21.7988C69.3561 22.2383 68.6725 22.5996 67.8717 22.8828C67.0709 23.1562 66.1578 23.293 65.1324 23.293ZM62.1588 4.99707L65.0299 0.485352H69.6148L65.5865 4.99707H62.1588ZM85.199 19.543V0.5H89.4471V23H85.6238L85.199 19.543ZM75.1795 15.2656V14.958C75.1795 13.7471 75.3162 12.6484 75.5896 11.6621C75.8631 10.666 76.2635 9.81152 76.7908 9.09863C77.3182 8.38574 77.9676 7.83398 78.7391 7.44336C79.5105 7.05273 80.3895 6.85742 81.3758 6.85742C82.3035 6.85742 83.1141 7.05273 83.8074 7.44336C84.5105 7.83398 85.1062 8.39062 85.5945 9.11328C86.0926 9.82617 86.493 10.6709 86.7957 11.6475C87.0984 12.6143 87.3182 13.6738 87.4549 14.8262V15.5C87.3182 16.6035 87.0984 17.6289 86.7957 18.5762C86.493 19.5234 86.0926 20.3535 85.5945 21.0664C85.1062 21.7695 84.5105 22.3164 83.8074 22.707C83.1043 23.0977 82.284 23.293 81.3465 23.293C80.3602 23.293 79.4812 23.0928 78.7098 22.6924C77.948 22.292 77.3035 21.7305 76.7762 21.0078C76.2586 20.2852 75.8631 19.4355 75.5896 18.459C75.3162 17.4824 75.1795 16.418 75.1795 15.2656ZM79.3982 14.958V15.2656C79.3982 15.9199 79.4471 16.5303 79.5447 17.0967C79.6521 17.6631 79.823 18.166 80.0574 18.6055C80.3016 19.0352 80.6141 19.3721 80.9949 19.6162C81.3855 19.8506 81.8592 19.9678 82.4158 19.9678C83.1385 19.9678 83.7342 19.8066 84.2029 19.4844C84.6717 19.1523 85.0281 18.6982 85.2723 18.1221C85.5262 17.5459 85.6727 16.8818 85.7117 16.1299V14.2109C85.6824 13.5957 85.5945 13.0439 85.448 12.5557C85.3113 12.0576 85.1062 11.6328 84.8328 11.2812C84.5691 10.9297 84.2371 10.6562 83.8367 10.4609C83.4461 10.2656 82.9822 10.168 82.4451 10.168C81.8982 10.168 81.4295 10.2949 81.0389 10.5488C80.6482 10.793 80.3309 11.1299 80.0867 11.5596C79.8523 11.9893 79.6766 12.4971 79.5594 13.083C79.452 13.6592 79.3982 14.2842 79.3982 14.958ZM101.838 23.293C100.607 23.293 99.5039 23.0977 98.5273 22.707C97.5508 22.3066 96.7207 21.7549 96.0371 21.0518C95.3633 20.3486 94.8457 19.5332 94.4844 18.6055C94.123 17.668 93.9424 16.6719 93.9424 15.6172V15.0312C93.9424 13.8301 94.1133 12.7314 94.4551 11.7354C94.7969 10.7393 95.2852 9.875 95.9199 9.14258C96.5645 8.41016 97.3457 7.84863 98.2637 7.45801C99.1816 7.05762 100.217 6.85742 101.369 6.85742C102.492 6.85742 103.488 7.04297 104.357 7.41406C105.227 7.78516 105.954 8.3125 106.54 8.99609C107.136 9.67969 107.585 10.5 107.888 11.457C108.19 12.4043 108.342 13.459 108.342 14.6211V16.3789H95.7441V13.5664H104.196V13.2441C104.196 12.6582 104.089 12.1357 103.874 11.6768C103.669 11.208 103.356 10.8369 102.937 10.5635C102.517 10.29 101.979 10.1533 101.325 10.1533C100.769 10.1533 100.29 10.2754 99.8896 10.5195C99.4893 10.7637 99.1621 11.1055 98.9082 11.5449C98.6641 11.9844 98.4785 12.502 98.3516 13.0977C98.2344 13.6836 98.1758 14.3281 98.1758 15.0312V15.6172C98.1758 16.252 98.2637 16.8379 98.4395 17.375C98.625 17.9121 98.8838 18.376 99.2158 18.7666C99.5576 19.1572 99.9678 19.46 100.446 19.6748C100.935 19.8896 101.486 19.9971 102.102 19.9971C102.863 19.9971 103.571 19.8506 104.226 19.5576C104.89 19.2549 105.461 18.8008 105.939 18.1953L107.99 20.4219C107.658 20.9004 107.204 21.3594 106.628 21.7988C106.062 22.2383 105.378 22.5996 104.577 22.8828C103.776 23.1562 102.863 23.293 101.838 23.293ZM115.943 7.15039L118.565 11.9697L121.26 7.15039H125.757L121.275 14.8994L125.962 23H121.45L118.594 17.9023L115.738 23H111.226L115.913 14.8994L111.431 7.15039H115.943Z" fill="#2E3156"/>
</svg>
